<?xml version="1.0" encoding="UTF-8" standalone="no"?>
<!-- Created with Inkscape (http://www.inkscape.org/) -->

<svg
   width="173"
   height="128"
   viewBox="0 0 173 128"
   id="svg2"
   version="1.1"
   inkscape:version="1.2.2 (b0a8486541, 2022-12-01)"
   sodipodi:docname="panel-background.svgz"
   xmlns:inkscape="http://www.inkscape.org/namespaces/inkscape"
   xmlns:sodipodi="http://sodipodi.sourceforge.net/DTD/sodipodi-0.dtd"
   xmlns:xlink="http://www.w3.org/1999/xlink"
   xmlns="http://www.w3.org/2000/svg"
   xmlns:svg="http://www.w3.org/2000/svg">
  <defs
     id="defs4">
    <style
       type="text/css"
       id="current-color-scheme">
      .ColorScheme-Text {
        color:#dfdfdf;
      }
      .ColorScheme-Background {
        color:#000000;
      }
      .ColorScheme-Highlight {
        color:#3daee9;
      }
      .ColorScheme-ViewText {
        color:#dfdfdf;
      }
      .ColorScheme-ViewBackground {
        color:#363636;
      }
      .ColorScheme-ViewHover {
        color:#93cee9;
      }
      .ColorScheme-ViewFocus{
        color:#3daee9;
      }
      .ColorScheme-ButtonText {
        color:#dfdfdf;
      }
      .ColorScheme-ButtonBackground {
        color:#363636;
      }
      .ColorScheme-ButtonHover {
        color:#93cee9;
      }
      .ColorScheme-ButtonFocus{
        color:#3daee9;
      }
      </style>
    <linearGradient
       gradientTransform="matrix(1.1020538,0,0,1,98.293668,0)"
       y2="-34.999985"
       x2="-904.3623"
       y1="-34.999985"
       x1="-920.69537"
       gradientUnits="userSpaceOnUse"
       id="linearGradient4920"
       xlink:href="#linearGradient4270"
       inkscape:collect="always" />
    <linearGradient
       inkscape:collect="always"
       id="linearGradient4270">
      <stop
         style="stop-color:#000000;stop-opacity:0.66663194"
         offset="0"
         id="stop4272" />
      <stop
         style="stop-color:#000000;stop-opacity:0;"
         offset="1"
         id="stop4274" />
    </linearGradient>
    <radialGradient
       r="6"
       fy="11.99998"
       fx="77"
       cy="11.99998"
       cx="77"
       gradientTransform="matrix(1.6289431e-5,-4.6666397,4.6666504,1.6289464e-5,3.9989368,381.3309)"
       gradientUnits="userSpaceOnUse"
       id="radialGradient994"
       xlink:href="#linearGradient4270"
       inkscape:collect="always" />
  </defs>
  <sodipodi:namedview
     id="base"
     pagecolor="#cccccc"
     bordercolor="#cc0000"
     borderopacity="1"
     inkscape:pageopacity="0"
     inkscape:pageshadow="2"
     inkscape:zoom="7.4700001"
     inkscape:cx="104.88621"
     inkscape:cy="104.35073"
     inkscape:document-units="px"
     inkscape:current-layer="layer1"
     showgrid="true"
     inkscape:showpageshadow="false"
     borderlayer="true"
     units="px"
     inkscape:window-width="3840"
     inkscape:window-height="2028"
     inkscape:window-x="0"
     inkscape:window-y="64"
     inkscape:window-maximized="1"
     showguides="true"
     fit-margin-top="0"
     fit-margin-left="0"
     fit-margin-right="0"
     fit-margin-bottom="0"
     inkscape:pagecheckerboard="0"
     inkscape:deskcolor="#cccccc">
    <inkscape:grid
       type="xygrid"
       id="grid3336"
       empspacing="2"
       originx="0"
       originy="-91.999976"
       visible="true"
       enabled="true"
       snapvisiblegridlinesonly="true" />
  </sodipodi:namedview>
  <g
     inkscape:label="Layer 1"
     inkscape:groupmode="layer"
     id="layer1"
     transform="translate(0,-832.36218)">
    <rect
       style="opacity:0.9;fill:currentColor;fill-opacity:0;stroke:none"
       id="thick-center"
       width="32"
       height="32"
       x="20"
       y="842.36218"
       class="ColorScheme-Background" />
    <rect
       style="opacity:1;fill:#ff6600;fill-opacity:0;stroke:none"
       id="hint-tile-center"
       width="5"
       height="5"
       x="0"
       y="904.36218" />
    <rect
       transform="rotate(90)"
       style="fill:#800080;fill-opacity:0;stroke:none;stroke-width:1.1547"
       id="thick-hint-right-margin"
       width="4"
       height="8"
       x="862.36218"
       y="-57" />
    <rect
       transform="rotate(90)"
       y="-21"
       x="862.36218"
       height="8"
       width="4"
       id="thick-hint-left-margin"
       style="fill:#800080;fill-opacity:0;stroke:none;stroke-width:1.1547" />
    <rect
       y="836.36218"
       x="39"
       height="8"
       width="4"
       id="thick-hint-top-margin"
       style="fill:#800080;fill-opacity:0;stroke:none;stroke-width:1.1547" />
    <rect
       style="fill:#800080;fill-opacity:0;stroke:none;stroke-width:1.1547"
       id="thick-hint-bottom-margin"
       width="4"
       height="8"
       x="40"
       y="872.36218" />
    <use
       x="0"
       y="0"
       xlink:href="#top"
       id="bottom"
       transform="matrix(1,0,0,-1,5.0622606e-8,1852.7245)"
       width="100%"
       height="100%" />
    <use
       height="100%"
       width="100%"
       transform="matrix(0,1,1,0,-876.36216,876.36223)"
       id="left"
       xlink:href="#top"
       y="0"
       x="0" />
    <use
       x="0"
       y="0"
       xlink:href="#shadow-top"
       id="shadow-right"
       transform="rotate(90,49.999997,926.36224)"
       width="100%"
       height="100%" />
    <use
       x="0"
       y="0"
       xlink:href="#top"
       id="right"
       transform="rotate(90,50.000007,926.36224)"
       width="100%"
       height="100%" />
    <use
       x="0"
       y="0"
       xlink:href="#shadow-top"
       id="shadow-left"
       transform="rotate(-90,50.000047,926.36224)"
       width="100%"
       height="100%" />
    <use
       x="0"
       y="0"
       xlink:href="#shadow-top"
       id="shadow-bottom"
       transform="matrix(1,0,0,-1,1.0506226e-6,1852.7246)"
       width="100%"
       height="100%" />
    <g
       style="opacity:1"
       transform="matrix(1.1666637,0,0,1.1666637,48.666648,-188.39086)"
       id="shadow-topleft">
      <path
         id="path4828"
         style="opacity:0.01;fill:url(#radialGradient994)"
         d="M 32,-6 V 22 H 44 C 44,13.13604 51.136035,6 60,6 V -6 Z"
         transform="matrix(0.85714504,0,0,0.85714504,-55.428665,931.50503)" />
      <path
         id="path1373"
         style="opacity:0.01;fill:#000000"
         d="M 44 71 C 34.582 71 27 78.582 27 88 L 28 88 C 28 79.13604 35.136035 72 44 72 L 44 71 z "
         transform="matrix(0.85714504,0,0,0.85714504,-41.714376,874.9334)" />
    </g>
    <g
       transform="matrix(0.37500096,0,0,1.9999988,36.874994,-916.36106)"
       id="top">
      <rect
         transform="matrix(0,-1,-1,0,0,0)"
         style="opacity:0.45;fill:#000000"
         id="rect4152"
         width="8"
         height="32"
         x="-918.36218"
         y="-51" />
    </g>
    <g
       transform="translate(15.000037,-5.999943)"
       id="topleft">
      <path
         id="rect4159"
         d="m 29,910.36218 c -8.863965,0 -16,7.13604 -16,16 h 16 z"
         style="opacity:0.45;fill:#000000" />
    </g>
    <rect
       style="opacity:0.45;fill:#000000"
       id="center"
       width="12"
       height="12"
       x="44"
       y="920.36218" />
    <g
       style="opacity:1"
       transform="matrix(0.37500332,0,0,1.5555643,36.874926,-505.09806)"
       id="shadow-top">
      <rect
         y="-50.999985"
         x="-916.36218"
         height="32"
         width="6"
         id="rect4820"
         style="opacity:1;fill:none;fill-opacity:0;stroke:none"
         transform="matrix(0,-1,-1,0,0,0)" />
      <rect
         y="-50.999844"
         x="-906.07654"
         height="31.999859"
         width="7.7143521"
         id="rect4822"
         style="opacity:0.01;fill:url(#linearGradient4920)"
         transform="matrix(0,-1,-1,0,0,0)" />
      <rect
         transform="matrix(0,-1,-1,0,0,0)"
         style="opacity:1;fill:none;fill-opacity:0;stroke:none"
         id="rect4824"
         width="0.99997741"
         height="32"
         x="-911.36218"
         y="-50.999985" />
      <rect
         y="-50.999844"
         x="-906.07648"
         height="31.999859"
         width="0.64285356"
         id="rect1453"
         style="opacity:0.01;fill:#000000"
         transform="matrix(0,-1,-1,0,0,0)" />
    </g>
    <rect
       style="fill:#ff6600;fill-opacity:0;stroke:none;stroke-width:1.41422"
       id="shadow-hint-top-margin"
       width="4"
       height="12"
       x="48.000034"
       y="892.36224" />
    <rect
       y="948.36218"
       x="48.000034"
       height="11.999977"
       width="4"
       id="shadow-hint-bottom-margin"
       style="fill:#ff6600;fill-opacity:0;stroke:none;stroke-width:1.41421" />
    <rect
       y="-84.000038"
       x="924.36218"
       height="12"
       width="3.9999769"
       id="shadow-hint-right-margin"
       style="fill:#ff6600;fill-opacity:0;stroke:none;stroke-width:1.41422"
       transform="rotate(90)" />
    <rect
       style="fill:#ff6600;fill-opacity:0;stroke:none;stroke-width:1.41421"
       id="shadow-hint-left-margin"
       width="4.0000229"
       height="12"
       x="924.36218"
       y="-28.000038"
       transform="rotate(90)" />
    <rect
       y="978.36218"
       x="43.999989"
       height="12.000099"
       width="12.000099"
       id="shadow-center"
       style="fill:none" />
    <use
       x="0"
       y="0"
       xlink:href="#topleft"
       id="topright"
       transform="matrix(-1,0,0,1,100.00007,-3.1718748e-7)"
       width="100%"
       height="100%" />
    <use
       x="0"
       y="0"
       xlink:href="#topleft"
       id="bottomleft"
       transform="matrix(1,0,0,-1,-5.0622594e-8,1852.7246)"
       width="100%"
       height="100%" />
    <use
       x="0"
       y="0"
       xlink:href="#topleft"
       id="bottomright"
       transform="rotate(180,50.000038,926.36224)"
       width="100%"
       height="100%" />
    <use
       x="0"
       y="0"
       xlink:href="#shadow-topleft"
       id="shadow-topright"
       transform="matrix(-1,0,0,1,100.00007,-3.1718748e-7)"
       width="100%"
       height="100%" />
    <use
       x="0"
       y="0"
       xlink:href="#shadow-topleft"
       id="shadow-bottomleft"
       transform="matrix(1,0,0,-1,-1.0506226e-6,1852.7246)"
       width="100%"
       height="100%" />
    <use
       x="0"
       y="0"
       xlink:href="#shadow-topleft"
       id="shadow-bottomright"
       transform="rotate(180,50.000037,926.36224)"
       width="100%"
       height="100%" />
    <rect
       style="fill:#ffcc00;fill-opacity:0;stroke:none;stroke-width:1.41422"
       id="shadow-hint-top-inset"
       width="3.9999998"
       height="12"
       x="42"
       y="892.36218" />
    <rect
       y="948.36218"
       x="54"
       height="11.999977"
       width="3.9999998"
       id="shadow-hint-bottom-inset"
       style="fill:#ffcc00;fill-opacity:0;stroke:none;stroke-width:1.41421" />
    <rect
       y="-84"
       x="918.36218"
       height="12"
       width="3.9999769"
       id="shadow-hint-right-inset"
       style="fill:#ffcc00;fill-opacity:0;stroke:none;stroke-width:1.41422"
       transform="rotate(90)" />
    <rect
       style="fill:#ffcc00;fill-opacity:0;stroke:none;stroke-width:1.41421"
       id="shadow-hint-left-inset"
       width="4"
       height="12"
       x="930.36218"
       y="-28"
       transform="rotate(90)" />
    <rect
       y="904.36218"
       x="42"
       height="8"
       width="4"
       id="hint-top-inset"
       style="fill:#00ff00;fill-opacity:0;stroke:none;stroke-width:1.15469" />
    <rect
       style="fill:#00ff00;fill-opacity:0;stroke:none;stroke-width:0.182575"
       id="hint-bottom-inset"
       width="4"
       height="8"
       x="54"
       y="940.36218" />
    <rect
       transform="rotate(90)"
       style="fill:#00ff00;fill-opacity:0;stroke:none;stroke-width:0.182574"
       id="hint-right-inset"
       width="4"
       height="8"
       x="918.36218"
       y="-72" />
    <rect
       transform="rotate(90)"
       y="-36"
       x="930.36218"
       height="8"
       width="4"
       id="hint-left-inset"
       style="fill:#00ff00;fill-opacity:0;stroke:none;stroke-width:0.182574" />
    <rect
       y="904.36224"
       x="48"
       height="8"
       width="4"
       id="hint-top-margin"
       style="fill:#ff00ff;fill-opacity:0;stroke:none;stroke-width:1.15469" />
    <rect
       style="fill:#ff00ff;fill-opacity:0;stroke:none;stroke-width:1"
       id="hint-bottom-margin"
       width="4"
       height="8"
       x="48"
       y="940.36218" />
    <rect
       transform="rotate(90)"
       style="fill:#ff00ff;fill-opacity:0;stroke:none;stroke-width:0.999999"
       id="hint-right-margin"
       width="4"
       height="8"
       x="924.36218"
       y="-72.000038" />
    <rect
       transform="rotate(90)"
       y="-36.000038"
       x="924.36218"
       height="8"
       width="4"
       id="hint-left-margin"
       style="fill:#ff00ff;fill-opacity:0;stroke:none;stroke-width:0.999999" />
    <rect
       id="mask-top"
       height="16"
       width="12"
       x="128"
       y="904.36218" />
    <rect
       id="mask-center"
       height="12"
       width="12"
       x="128"
       y="921.36218" />
    <rect
       id="mask-bottom"
       height="16"
       transform="scale(1,-1)"
       width="12"
       x="128"
       y="-950.36218" />
    <rect
       id="mask-left"
       height="12"
       width="16"
       x="111"
       y="921.36218" />
    <rect
       id="mask-right"
       height="12"
       width="16"
       x="141"
       y="921.36218" />
    <path
       id="mask-topleft"
       d="m 127,905.36222 c -8.30999,0 -15,6.69001 -15,15 h -1 16 v -15.99998 z" />
    <path
       id="mask-topright"
       d="m 156,920.36224 c 0,-8.31 -6.69001,-15 -15,-15 v -1 16 h 15.99998 z" />
    <path
       id="mask-bottomleft"
       d="m 127,949.36224 c -8.30999,0 -15,-6.69001 -15,-15 h -1 16 v 15.99998 z" />
    <path
       id="mask-bottomright"
       d="m 156,934.36224 c 0,8.31 -6.69001,15 -15,15 v 1 -16 h 15.99998 z" />
  </g>
</svg>
